<svg width="127" height="19" viewBox="0 0 127 19" fill="none" xmlns="http://www.w3.org/2000/svg">
<path d="M15.008 18H11.672V10.944H4.256V18H0.944V0.983999H4.256V7.824H11.672V0.983999H15.008V18ZM21.7548 14.568C22.3468 15.16 23.0588 15.456 23.8908 15.456C24.7228 15.456 25.4268 15.16 26.0028 14.568C26.5948 13.976 26.8908 13.152 26.8908 12.096C26.8908 11.04 26.5948 10.216 26.0028 9.624C25.4268 9.032 24.7228 8.736 23.8908 8.736C23.0588 8.736 22.3468 9.032 21.7548 9.624C21.1788 10.216 20.8908 11.04 20.8908 12.096C20.8908 13.152 21.1788 13.976 21.7548 14.568ZM19.4508 7.608C20.6348 6.424 22.1148 5.832 23.8908 5.832C25.6668 5.832 27.1388 6.424 28.3068 7.608C29.4908 8.792 30.0828 10.288 30.0828 12.096C30.0828 13.904 29.4908 15.4 28.3068 16.584C27.1388 17.768 25.6668 18.36 23.8908 18.36C22.1148 18.36 20.6348 17.768 19.4508 16.584C18.2828 15.4 17.6988 13.904 17.6988 12.096C17.6988 10.288 18.2828 8.792 19.4508 7.608ZM35.7944 18H32.6024V6.192H35.6504V7.632C35.9544 7.088 36.4344 6.656 37.0904 6.336C37.7464 6.016 38.4184 5.856 39.1064 5.856C40.8184 5.856 41.9864 6.512 42.6104 7.824C43.4584 6.512 44.7064 5.856 46.3544 5.856C47.5544 5.856 48.5624 6.232 49.3784 6.984C50.2104 7.736 50.6264 8.856 50.6264 10.344V18H47.5304V10.992C47.5304 10.32 47.3544 9.784 47.0024 9.384C46.6664 8.968 46.1464 8.76 45.4424 8.76C44.7864 8.76 44.2584 8.984 43.8584 9.432C43.4584 9.88 43.2584 10.432 43.2584 11.088V18H40.0904V10.992C40.0904 10.32 39.9144 9.784 39.5624 9.384C39.2104 8.968 38.6904 8.76 38.0024 8.76C37.3304 8.76 36.7944 8.984 36.3944 9.432C35.9944 9.864 35.7944 10.416 35.7944 11.088V18ZM56.1883 10.752H61.4683C61.4363 10.096 61.1963 9.544 60.7483 9.096C60.3163 8.648 59.6763 8.424 58.8283 8.424C58.0603 8.424 57.4363 8.664 56.9563 9.144C56.4763 9.624 56.2203 10.16 56.1883 10.752ZM61.7803 13.824L64.4443 14.616C64.1243 15.704 63.4923 16.6 62.5483 17.304C61.6203 18.008 60.4603 18.36 59.0683 18.36C57.3723 18.36 55.9323 17.792 54.7483 16.656C53.5643 15.504 52.9723 13.968 52.9723 12.048C52.9723 10.224 53.5483 8.736 54.7003 7.584C55.8523 6.416 57.2123 5.832 58.7803 5.832C60.6043 5.832 62.0283 6.376 63.0523 7.464C64.0923 8.552 64.6123 10.048 64.6123 11.952C64.6123 12.08 64.6043 12.224 64.5883 12.384C64.5883 12.544 64.5883 12.672 64.5883 12.768L64.5643 12.936H56.1163C56.1483 13.704 56.4523 14.344 57.0283 14.856C57.6043 15.368 58.2923 15.624 59.0923 15.624C60.4523 15.624 61.3483 15.024 61.7803 13.824ZM70.2219 18H67.1259V0.623999H70.2699V7.488C70.5579 7.04 71.0139 6.664 71.6379 6.36C72.2779 6.04 73.0139 5.88 73.8459 5.88C75.5259 5.88 76.8539 6.456 77.8299 7.608C78.8059 8.76 79.2939 10.24 79.2939 12.048C79.2939 13.856 78.7819 15.352 77.7579 16.536C76.7339 17.704 75.3899 18.288 73.7259 18.288C72.1099 18.288 70.9419 17.712 70.2219 16.56V18ZM75.2619 14.544C75.8219 13.936 76.1019 13.112 76.1019 12.072C76.1019 11.032 75.8219 10.216 75.2619 9.624C74.7179 9.032 74.0219 8.736 73.1739 8.736C72.3259 8.736 71.6219 9.032 71.0619 9.624C70.5019 10.216 70.2219 11.032 70.2219 12.072C70.2219 13.112 70.5019 13.936 71.0619 14.544C71.6379 15.136 72.3419 15.432 73.1739 15.432C74.0219 15.432 74.7179 15.136 75.2619 14.544ZM89.5023 18C89.4383 17.68 89.4063 17.256 89.4063 16.728C89.1023 17.256 88.6463 17.656 88.0383 17.928C87.4463 18.184 86.8143 18.312 86.1423 18.312C84.7503 18.312 83.6543 17.872 82.8543 16.992C82.0543 16.096 81.6543 14.984 81.6543 13.656V6.192H84.8463V13.008C84.8463 13.712 85.0303 14.288 85.3983 14.736C85.7663 15.168 86.3023 15.384 87.0063 15.384C87.6943 15.384 88.2383 15.176 88.6383 14.76C89.0383 14.328 89.2383 13.76 89.2383 13.056V6.192H92.4303V15.864C92.4303 16.616 92.4703 17.328 92.5503 18H89.5023ZM107.285 6.192L102.557 11.16L107.381 18H103.469L100.349 13.488L99.0288 14.88V18H95.8368V0.623999H99.0288V10.584L103.109 6.192H107.285ZM108.242 14.784C108.242 13.776 108.57 12.968 109.226 12.36C109.882 11.752 110.73 11.368 111.77 11.208L114.674 10.776C115.266 10.696 115.562 10.416 115.562 9.936C115.562 9.488 115.386 9.12 115.034 8.832C114.698 8.544 114.21 8.4 113.57 8.4C112.898 8.4 112.362 8.584 111.962 8.952C111.578 9.32 111.362 9.776 111.314 10.32L108.482 9.72C108.594 8.696 109.098 7.792 109.994 7.008C110.89 6.224 112.074 5.832 113.546 5.832C115.306 5.832 116.602 6.256 117.434 7.104C118.266 7.936 118.682 9.008 118.682 10.32V16.128C118.682 16.832 118.73 17.456 118.826 18H115.898C115.818 17.648 115.778 17.176 115.778 16.584C115.026 17.752 113.866 18.336 112.298 18.336C111.082 18.336 110.098 17.984 109.346 17.28C108.61 16.576 108.242 15.744 108.242 14.784ZM112.97 15.96C113.722 15.96 114.338 15.752 114.818 15.336C115.314 14.904 115.562 14.2 115.562 13.224V12.696L112.898 13.104C111.922 13.248 111.434 13.744 111.434 14.592C111.434 14.976 111.57 15.304 111.842 15.576C112.114 15.832 112.49 15.96 112.97 15.96ZM122.379 17.544C121.947 17.112 121.731 16.592 121.731 15.984C121.731 15.376 121.947 14.864 122.379 14.448C122.811 14.016 123.323 13.8 123.915 13.8C124.523 13.8 125.043 14.016 125.475 14.448C125.907 14.864 126.123 15.376 126.123 15.984C126.123 16.592 125.907 17.112 125.475 17.544C125.043 17.96 124.523 18.168 123.915 18.168C123.323 18.168 122.811 17.96 122.379 17.544Z" fill="white"/>
</svg>
