<svg width="16" height="16" viewBox="0 0 16 16" fill="none" xmlns="http://www.w3.org/2000/svg">
<path d="M7.06606 12.871C10.2322 12.871 12.7989 10.2882 12.7989 7.1022C12.7989 3.91617 10.2322 1.33337 7.06606 1.33337C3.89992 1.33337 1.33325 3.91617 1.33325 7.1022C1.33325 10.2882 3.89992 12.871 7.06606 12.871Z" fill="#121212"/>
<path opacity="0.4" d="M13.783 14.6369C13.5603 14.6297 13.3486 14.5381 13.1902 14.3804L11.8326 12.7935C11.5415 12.5273 11.5177 12.0749 11.7792 11.7793C11.9016 11.6555 12.068 11.5858 12.2416 11.5858C12.4152 11.5858 12.5816 11.6555 12.704 11.7793L14.4114 13.1455C14.6574 13.3972 14.7333 13.7709 14.6052 14.0995C14.4771 14.4282 14.169 14.6503 13.8186 14.6667L13.783 14.6369Z" fill="#121212"/>
</svg>
